<svg version="1.2" xmlns="http://www.w3.org/2000/svg" viewBox="0 0 150 150" width="150" height="150">
	<title>menu-svg</title>
	<style>
		.s0 { fill: #faebd7 } 
	</style>
	<path id="Layer" class="s0" d="m40 42.5c0-2.5 2-4.5 4.5-4.5h61c2.5 0 4.5 2 4.5 4.5 0 2.5-2 4.5-4.5 4.5h-61c-2.5 0-4.5-2-4.5-4.5z"/>
	<path id="Layer" class="s0" d="m40 64.5c0-2.5 2-4.5 4.5-4.5h61c2.5 0 4.5 2 4.5 4.5 0 2.5-2 4.5-4.5 4.5h-61c-2.5 0-4.5-2-4.5-4.5z"/>
	<path id="Layer" class="s0" d="m40 85.5c0-2.5 2-4.5 4.5-4.5h61c2.5 0 4.5 2 4.5 4.5 0 2.5-2 4.5-4.5 4.5h-61c-2.5 0-4.5-2-4.5-4.5z"/>
	<path id="Layer" class="s0" d="m40 107.5c0-2.5 2-4.5 4.5-4.5h36c2.5 0 4.5 2 4.5 4.5 0 2.5-2 4.5-4.5 4.5h-36c-2.5 0-4.5-2-4.5-4.5z"/>
</svg>