<svg width="34" height="32" viewBox="0 0 34 32" fill="none" xmlns="http://www.w3.org/2000/svg">
<path d="M1.5321 5.88184C0.685949 5.17184 0.575581 3.91033 1.28558 3.06418L2.57116 1.53209C3.28116 0.685943 4.54267 0.575575 5.38882 1.28558L19.9437 13.4985C20.7898 14.2085 20.9002 15.4701 20.1902 16.3162L18.9046 17.8483C18.1946 18.6944 16.9331 18.8048 16.0869 18.0948L1.5321 5.88184Z" fill="#CD5C5C"/>
<path d="M29.1751 1.16264C30.0213 0.452641 31.2828 0.563009 31.9928 1.40916L33.2784 2.94125C33.9884 3.7874 33.878 5.04891 33.0319 5.75891L18.477 17.9719C17.6309 18.6819 16.3694 18.5715 15.6594 17.7254L14.3738 16.1933C13.6638 15.3471 13.7742 14.0856 14.6203 13.3756L29.1751 1.16264Z" fill="#CD5C5C"/>
<path d="M1.71447 19.1872C0.868322 18.4772 0.757954 17.2156 1.46796 16.3695L2.75353 14.8374C3.46354 13.9913 4.72505 13.8809 5.5712 14.5909L20.126 26.8039C20.9722 27.5139 21.0826 28.7754 20.3726 29.6215L19.087 31.1536C18.377 31.9998 17.1155 32.1101 16.2693 31.4001L1.71447 19.1872Z" fill="#CD5C5C"/>
<path d="M29.3575 14.468C30.2037 13.758 31.4652 13.8683 32.1752 14.7145L33.4608 16.2466C34.1708 17.0927 34.0604 18.3542 33.2142 19.0642L18.6594 31.2772C17.8133 31.9872 16.5517 31.8768 15.8417 31.0307L14.5562 29.4986C13.8462 28.6524 13.9565 27.3909 14.8027 26.6809L29.3575 14.468Z" fill="#CD5C5C"/>
</svg>
